<svg width="80" height="80" viewBox="0 0 80 80" fill="none" xmlns="http://www.w3.org/2000/svg">
<path d="M24.3967 22.9652C23.1693 21.7631 21.0753 22.2026 20.4638 23.7994L0.156982 76.8291C-0.562403 78.7076 1.31623 80.5524 3.2381 79.8464C5.95785 78.8475 55.2069 60.7617 57.3892 59.9603C59.0122 59.3644 59.4749 57.3169 58.2411 56.1089L24.3967 22.9652ZM23.6401 28.8531L33.4746 38.4839C34.1551 46.4929 37.1848 54.1923 42.1251 60.5597L31.8876 64.3193C24.2301 56.5188 20.3223 45.613 21.3631 34.7994L23.6401 28.8531ZM17.1879 69.7175C14.8271 67.0917 12.8636 64.1654 11.3334 60.9915L17.1127 45.8989C18.5481 53.6185 22.0886 60.5242 27.0544 66.094L17.1879 69.7175ZM9.10167 66.8196C10.103 68.4401 11.215 69.9902 12.432 71.4641L6.48722 73.6473L9.10167 66.8196ZM46.8291 58.8323C43.24 54.556 40.6638 49.526 39.2815 44.1706L52.2286 56.8494L46.8291 58.8323Z" fill="#EA0000"/>
<path d="M55.607 43.7734C56.5416 44.6886 58.0568 44.6886 58.9914 43.7734C67.9948 34.9566 76.7616 37.6825 76.8492 37.7109C78.1031 38.1201 79.4584 37.4565 79.8764 36.2287C80.2946 35.0011 79.6167 33.6736 78.3628 33.2642C77.8909 33.1103 66.6791 29.6165 55.6072 40.4591C54.6724 41.3742 54.6722 42.8583 55.607 43.7734Z" fill="#EA0000"/>
<path d="M36.9925 25.5447C37.9269 26.4599 39.4423 26.4601 40.3769 25.5447C51.4487 14.702 47.8812 3.72237 47.724 3.26021C47.306 2.03232 45.9505 1.36845 44.6968 1.77796C43.443 2.18731 42.7654 3.51457 43.1832 4.74247C43.2124 4.82824 45.9958 13.4135 36.9925 22.2305C36.0579 23.1456 36.0579 24.6296 36.9925 25.5447Z" fill="#EA0000"/>
<path d="M45.4536 30.5157C44.519 31.431 44.519 32.9148 45.4536 33.8301C46.3796 34.737 47.8843 34.7489 48.8239 33.844C50.0602 33.2407 53.8975 35.5034 56.0302 33.4157C58.1398 31.3496 55.8984 27.6681 56.4582 26.3779C57.7775 25.8282 61.5354 28.0243 63.645 25.9585C65.7552 23.8924 63.5136 20.2109 64.0734 18.9206C65.3946 18.3708 69.1504 20.5672 71.2601 18.5012C73.3702 16.4351 71.1286 12.7536 71.6885 11.4632C73.0018 10.9162 76.7671 13.1077 78.8755 11.0437C81.0071 8.9559 78.7009 5.1913 79.3125 3.98685C80.233 3.07066 80.2281 1.59716 79.2983 0.68644C78.3638 -0.228813 76.8484 -0.228813 75.9138 0.68644C74.0275 2.53366 74.3966 5.14146 74.7519 7.00587C72.848 6.65792 70.1852 6.29654 68.299 8.14361C66.4127 9.99083 66.7817 12.5986 67.137 14.463C65.2331 14.1153 62.57 13.7536 60.6839 15.6009C58.7976 17.4482 59.1668 20.056 59.5221 21.9204C57.6179 21.5724 54.9551 21.2109 53.069 23.0581C51.1827 24.9053 51.5517 27.5131 51.9071 29.3775C50.0031 29.0299 47.3396 28.6685 45.4536 30.5157Z" fill="#EA0000"/>
<path d="M58.9916 10.6296C59.9262 9.71445 59.9262 8.23074 58.9916 7.31554C58.057 6.40035 56.5418 6.40035 55.6072 7.31554C54.6726 8.23074 54.6726 9.71445 55.6072 10.6296C56.5417 11.5448 58.057 11.5448 58.9916 10.6296Z" fill="#EA0000"/>
<path d="M74.2213 27.8887C75.543 27.8887 76.6144 26.8394 76.6144 25.5449C76.6144 24.2505 75.543 23.2012 74.2213 23.2012C72.8996 23.2012 71.8281 24.2505 71.8281 25.5449C71.8281 26.8394 72.8996 27.8887 74.2213 27.8887Z" fill="#EA0000"/>
<path d="M69.1448 47.0876C68.2102 48.0029 68.2102 49.4869 69.1448 50.4022C70.0794 51.3175 71.5946 51.3175 72.5292 50.4022C73.4638 49.4869 73.4638 48.0029 72.5292 47.0876C71.5948 46.1723 70.0794 46.1723 69.1448 47.0876Z" fill="#EA0000"/>
<path d="M35.3002 13.9434C36.2348 13.0282 36.2348 11.5445 35.3002 10.6293C34.3656 9.71407 32.8504 9.71407 31.9158 10.6293C30.9812 11.5443 30.9812 13.0282 31.9158 13.9434C32.8504 14.8586 34.3658 14.8586 35.3002 13.9434Z" fill="#EA0000"/>
</svg>
