<svg width="60" height="60" viewBox="0 0 60 60" fill="none" xmlns="http://www.w3.org/2000/svg">
<path d="M54.5527 47.4991C55.7484 46.0643 56.4844 44.1287 56.4844 42C56.4844 37.5888 53.3302 34 49.4531 34C45.5761 34 42.4219 37.5888 42.4219 42C42.4219 44.1287 43.1578 46.0643 44.3536 47.4991C42.29 48.8015 40.6485 50.868 39.7266 53.3608C38.8046 50.868 37.1631 48.8016 35.0995 47.4991C36.2953 46.0643 37.0312 44.1287 37.0312 42C37.0312 37.5888 33.877 34 30 34C26.123 34 22.9688 37.5888 22.9688 42C22.9688 44.1287 23.7047 46.0643 24.9005 47.4991C22.8369 48.8015 21.1954 50.868 20.2734 53.3608C19.3515 50.868 17.71 48.8016 15.6464 47.4991C16.8422 46.0643 17.5781 44.1287 17.5781 42C17.5781 37.5888 14.4239 34 10.5469 34C6.66984 34 3.51562 37.5888 3.51562 42C3.51562 44.1287 4.25156 46.0643 5.44734 47.4991C2.20184 49.5475 0 53.4864 0 58V60H60V58C60 53.4864 57.7982 49.5475 54.5527 47.4991ZM10.5469 38C12.4854 38 14.0625 39.7944 14.0625 42C14.0625 44.2056 12.4854 46 10.5469 46C8.60836 46 7.03125 44.2056 7.03125 42C7.03125 39.7944 8.60836 38 10.5469 38ZM3.73805 56C4.52051 52.5533 7.27652 50 10.5469 50C13.8171 50 16.5732 52.5533 17.3557 56H3.73805ZM30 38C31.9385 38 33.5156 39.7944 33.5156 42C33.5156 44.2056 31.9385 46 30 46C28.0615 46 26.4844 44.2056 26.4844 42C26.4844 39.7944 28.0615 38 30 38ZM23.1912 56C23.9736 52.5533 26.7296 50 30 50C33.2702 50 36.0264 52.5533 36.8088 56H23.1912ZM49.4531 38C51.3916 38 52.9688 39.7944 52.9688 42C52.9688 44.2056 51.3916 46 49.4531 46C47.5146 46 45.9375 44.2056 45.9375 42C45.9375 39.7944 47.5146 38 49.4531 38ZM42.6443 56C43.4268 52.5533 46.1828 50 49.4531 50C52.7234 50 55.4795 52.5533 56.262 56H42.6443Z" fill="#EA0000"/>
<path d="M40.5469 24C40.5469 19.4864 38.345 15.5475 35.0995 13.4991C36.2953 12.0643 37.0312 10.1287 37.0312 8C37.0312 3.5888 33.877 0 30 0C26.123 0 22.9688 3.5888 22.9688 8C22.9688 10.1287 23.7047 12.0643 24.9005 13.4991C21.655 15.5475 19.4531 19.4864 19.4531 24V26H40.5469V24ZM30 4C31.9385 4 33.5156 5.7944 33.5156 8C33.5156 10.2056 31.9385 12 30 12C28.0615 12 26.4844 10.2056 26.4844 8C26.4844 5.7944 28.0615 4 30 4ZM23.1912 22C23.9736 18.5533 26.7296 16 30 16C33.2702 16 36.0264 18.5533 36.8088 22H23.1912Z" fill="#EA0000"/>
<path d="M51.2109 30H54.7266V10H42.4219V14H51.2109V30Z" fill="#EA0000"/>
<path d="M8.78906 14H17.5781V10H5.27344V30H8.78906V14Z" fill="#EA0000"/>
</svg>
