<svg width="60" height="60" viewBox="0 0 60 60" fill="none" xmlns="http://www.w3.org/2000/svg">
<path d="M0 12.4407C0 21.0891 8.00533 28.125 17.8452 28.125H19.5579C20.9655 29.149 22.4529 29.9595 23.9999 30.5421V33.3984C23.9999 38.3093 19.5139 42.3047 13.9999 42.3047C12.1205 42.3047 9.8732 42.3047 7.99987 42.3047V45.8203H11.9999V56.4844H8V60H52V56.4844H48V45.8203H52V42.3047C50.1267 42.3047 47.8793 42.3047 46 42.3047C40.486 42.3047 36 38.3093 36 33.3984V30.5421C37.5471 29.9595 39.0345 29.149 40.442 28.125H42.1547C51.9947 28.125 60 21.0891 60 12.4406C60 8.15449 56.5441 4.56551 51.9531 3.71016C51.9833 3.06293 52 2.41207 52 1.75781V0H8V1.75781C8 2.41207 8.01667 3.06293 8.04693 3.71027C3.45587 4.56562 0 8.15461 0 12.4407ZM44 45.8203V56.4844H16V45.8203H44ZM36.2511 42.3047H23.7489C26.3692 40.046 28 36.8882 28 33.3984V31.52C28.6605 31.5986 29.3275 31.6406 30 31.6406C30.6725 31.6406 31.3395 31.5987 32 31.52V33.3984C32 36.8882 33.6308 40.046 36.2511 42.3047ZM56 12.4406C56 18.4861 50.9579 23.5151 44.3759 24.452C44.8807 23.8603 45.3692 23.2362 45.8381 22.5768C48.8652 18.32 50.8547 13.0148 51.6315 7.26434C54.1567 7.93887 56 10.0037 56 12.4406ZM47.9604 3.51562C47.6659 10.0377 45.734 16.09 42.4461 20.7136C39.0475 25.4929 34.6273 28.125 30 28.125C25.3727 28.125 20.9525 25.4929 17.5539 20.7136C14.266 16.09 12.3341 10.0377 12.0396 3.51562H47.9604ZM8.36853 7.26434C9.14533 13.0148 11.1349 18.3202 14.1619 22.5768C14.6308 23.2362 15.1193 23.8603 15.6241 24.452C9.04213 23.5152 4 18.4861 4 12.4407C4 10.0037 5.84333 7.93875 8.36853 7.26434Z" fill="#EA0000"/>
</svg>
