<svg width="60" height="60" viewBox="0 0 60 60" fill="none" xmlns="http://www.w3.org/2000/svg">
<path d="M60 18.2196L57.5137 15.7335L54.1679 19.0792L40.9194 5.83168L44.2654 2.48608L41.7791 0L35.9469 5.83168L37.1855 7.07021L35.9852 8.27042L31.1369 8.95332L30.0004 10.0892L28.8631 8.95332L24.0148 8.27042L22.8145 7.07021L24.0531 5.83168L18.2209 0L15.7346 2.48608L19.0806 5.83168L5.83212 19.0792L2.48627 15.7335L0 18.2196L5.83212 24.0514L7.07074 22.8128L8.27103 24.013L8.95422 28.8624L15.9212 35.829V46.1433L18.8674 50.0554V51.7527H17.1158V60H20.6319V55.2686H39.3681V60H42.8842V51.7527H41.1326V50.0554L44.0788 46.1433V35.829L51.0458 28.8624L51.729 24.013L52.9293 22.8128L54.1679 24.0514L60 18.2196ZM11.5888 22.3582L9.557 20.3266L20.3281 9.5563L22.3599 11.5879L27.2097 12.271L32.5809 17.642L31.8829 18.3398C31.4042 18.8185 30.7677 19.0821 30.0907 19.0821C29.4137 19.0821 28.7772 18.8185 28.2984 18.3398L25.579 15.6207L23.0928 18.1068L26.377 21.3908H22.959V34.4145C22.1875 34.0571 21.3292 33.8561 20.4244 33.8561H18.9206L12.2718 27.2077L11.5888 22.3582ZM22.3837 51.7527V48.8796L19.4375 44.9675V37.3718H20.4245C21.8221 37.3718 22.9592 38.5087 22.9592 39.9062V43.7517H26.4753V24.9067H37.8305C39.337 24.9067 40.5626 26.1322 40.5626 27.6386V44.9675L37.6164 48.8796V51.7528H22.3837V51.7527ZM48.4112 22.3582L47.7281 27.2076L44.0787 30.8567V27.6385C44.0787 24.1934 41.2757 21.3906 37.8303 21.3906H33.7181C33.9461 21.2192 34.1639 21.0311 34.3693 20.8259L37.5536 17.642L32.4863 12.5749L32.7902 12.2709L37.64 11.5878L39.6717 9.55618L50.4429 20.3265L48.4112 22.3582Z" fill="#EA0000"/>
</svg>
