<svg width="60" height="60" viewBox="0 0 60 60" fill="none" xmlns="http://www.w3.org/2000/svg">
<g clip-path="url(#clip0)">
<path d="M30 33.7956C11.9722 33.7956 2.0437 42.324 2.0437 57.8102C2.0437 59.0197 3.02397 60 4.23347 60H55.7663C56.9758 60 57.9561 59.0197 57.9561 57.8102C57.9562 42.3248 48.0277 33.7956 30 33.7956ZM6.50292 55.6205C7.36425 44.0416 15.2584 38.1752 30 38.1752C44.7416 38.1752 52.6358 44.0416 53.4978 55.6205H6.50292Z" fill="#EA0000"/>
<path d="M29.9999 0C21.7188 0 15.4744 6.37008 15.4744 14.8168C15.4744 23.511 21.9905 30.5832 29.9999 30.5832C38.0093 30.5832 44.5254 23.511 44.5254 14.8175C44.5254 6.37008 38.2809 0 29.9999 0ZM29.9999 26.2044C24.405 26.2044 19.8539 21.0963 19.8539 14.8175C19.8539 8.76937 24.1211 4.37953 29.9999 4.37953C35.7846 4.37953 40.1459 8.86641 40.1459 14.8175C40.1459 21.0963 35.5948 26.2044 29.9999 26.2044Z" fill="#EA0000"/>
</g>
<defs>
<clipPath id="clip0">
<rect width="60" height="60" fill="white"/>
</clipPath>
</defs>
</svg>
