<svg width="60" height="60" viewBox="0 0 60 60" fill="none" xmlns="http://www.w3.org/2000/svg">
<g clip-path="url(#clip0)">
<path d="M52.2853 6.42187L30.6047 0.0850684L30.56 0.0726465C30.1938 -0.0240332 29.8066 -0.0240332 29.4403 0.0725293L29.4178 0.0785059L7.71492 6.42175C6.11391 6.85675 4.99805 8.31409 4.99805 9.97523V40.8866C4.99805 44.9452 7.23832 48.6044 10.8482 50.4507L25.0447 58.7951L25.1434 58.8489C26.6639 59.6163 28.3318 60.0001 30 60.0001C31.6679 60.0001 33.3361 59.6164 34.8565 58.849L34.9068 58.8237L49.1518 50.4509C52.7618 48.6047 55.0021 44.9454 55.0021 40.8867V9.97523C55.002 8.31409 53.8863 6.85698 52.2853 6.42187ZM51.4862 40.8866C51.4862 43.6303 49.9648 46.1025 47.5153 47.3387L47.465 47.364L33.2248 55.734C31.2012 56.7368 28.7984 56.7367 26.7748 55.734L12.583 47.3925L12.4842 47.3387C10.0351 46.1025 8.51367 43.6302 8.51367 40.8866V9.97523C8.51367 9.89964 8.56477 9.83355 8.63777 9.81421L29.9999 3.57105L51.3172 9.80179L51.362 9.81421C51.4351 9.83355 51.4862 9.89964 51.4862 9.97523V40.8866Z" fill="#EA0000"/>
<path d="M30.0001 13.7222C21.6962 13.7222 14.9404 20.4779 14.9404 28.7818C14.9404 37.0857 21.6962 43.8415 30.0001 43.8415C38.304 43.8415 45.0597 37.0857 45.0597 28.7818C45.0597 20.4779 38.304 13.7222 30.0001 13.7222ZM30.0001 40.3257C23.6347 40.3257 18.4562 35.1472 18.4562 28.7818C18.4562 22.4164 23.6347 17.2379 30.0001 17.2379C36.3655 17.2379 41.544 22.4164 41.544 28.7818C41.544 35.1472 36.3655 40.3257 30.0001 40.3257Z" fill="#EA0000"/>
<path d="M36.4474 24.2667C35.7882 23.5542 34.676 23.511 33.9634 24.1703L28.0264 29.6642L26.0857 27.7236C25.3994 27.0372 24.2863 27.0371 23.5997 27.7236C22.9134 28.4101 22.9134 29.523 23.5997 30.2096L26.7361 33.346C26.7511 33.361 26.7674 33.3739 26.7828 33.3882C26.8043 33.4082 26.8257 33.4284 26.8479 33.4471C26.8722 33.4676 26.8973 33.4866 26.9225 33.5055C26.9454 33.5228 26.9682 33.5403 26.9917 33.5564C27.0183 33.5744 27.0455 33.5907 27.0728 33.6072C27.0962 33.6213 27.1193 33.6359 27.1432 33.6488C27.1725 33.6646 27.2024 33.6785 27.2324 33.6925C27.2555 33.7033 27.2781 33.7149 27.3016 33.7246C27.3339 33.7381 27.3667 33.7494 27.3996 33.7607C27.4217 33.7685 27.4433 33.777 27.4657 33.7838C27.5014 33.7946 27.5373 33.8029 27.5734 33.8115C27.5938 33.8163 27.6139 33.8223 27.6344 33.8264C27.6748 33.8344 27.7156 33.8397 27.7565 33.8449C27.773 33.847 27.7894 33.8504 27.806 33.852C27.8636 33.8577 27.9212 33.8607 27.979 33.8607C27.9791 33.8607 27.9791 33.8607 27.9791 33.8607C27.9792 33.8607 27.9794 33.8607 27.9794 33.8607C28.0342 33.8607 28.0892 33.858 28.1439 33.8528C28.1598 33.8513 28.1756 33.8483 28.1916 33.8463C28.2303 33.8416 28.2688 33.8369 28.3072 33.8296C28.3274 33.8258 28.3472 33.8203 28.3671 33.8158C28.4009 33.8082 28.4346 33.8008 28.468 33.7912C28.4902 33.7848 28.5119 33.7767 28.5338 33.7694C28.5644 33.7592 28.5949 33.7494 28.6251 33.7374C28.6483 33.7283 28.6709 33.7175 28.6938 33.7073C28.7219 33.6948 28.7499 33.6826 28.7774 33.6685C28.8011 33.6564 28.824 33.6428 28.8472 33.6297C28.873 33.6151 28.8988 33.6005 28.924 33.5844C28.9473 33.5695 28.9699 33.5532 28.9927 33.5371C29.0168 33.52 29.0408 33.5029 29.0643 33.4845C29.0862 33.4673 29.1074 33.4489 29.1286 33.4305C29.1433 33.4178 29.1586 33.4065 29.173 33.3932L36.3511 26.7508C37.0637 26.0914 37.1067 24.9792 36.4474 24.2667Z" fill="#EA0000"/>
</g>
<defs>
<clipPath id="clip0">
<rect width="60" height="60" fill="white"/>
</clipPath>
</defs>
</svg>
