<svg width="80" height="80" viewBox="0 0 80 80" fill="none" xmlns="http://www.w3.org/2000/svg">
<path d="M66.7261 21.6463C69.0263 19.3627 70.4688 16.1083 70.4688 12.5C70.4688 5.6075 65.2117 0 58.75 0C52.2883 0 47.0312 5.6075 47.0312 12.5C47.0312 16.1153 48.4792 19.3755 50.7873 21.66C46.1656 23.6672 42.3161 27.3815 40 32.1737C37.6839 27.3815 33.8344 23.6673 29.2127 21.66C31.5208 19.3755 32.9688 16.1153 32.9688 12.5C32.9688 5.6075 27.7117 0 21.25 0C14.7883 0 9.53125 5.6075 9.53125 12.5C9.53125 16.1083 10.9738 19.3627 13.2739 21.6463C5.49766 24.993 0 33.0788 0 42.5C0 43.8807 1.04937 45 2.34375 45H28.517C28.3627 45.808 28.2812 46.644 28.2812 47.5C28.2812 51.1177 29.7309 54.3797 32.0416 56.6643C24.3442 60.0217 18.9062 68.0955 18.9062 77.5C18.9062 78.8807 19.9556 80 21.25 80H58.75C60.0444 80 61.0938 78.8807 61.0938 77.5C61.0938 68.0955 55.6558 60.0217 47.9584 56.6643C50.2691 54.3797 51.7188 51.1177 51.7188 47.5C51.7188 46.644 51.6373 45.808 51.483 45H77.6562C78.9506 45 80 43.8807 80 42.5C80 33.0788 74.5023 24.993 66.7261 21.6463ZM58.75 5.01667C62.627 5.01667 65.7812 8.38117 65.7812 12.5167C65.7812 16.6522 62.627 20.0167 58.75 20.0167C54.873 20.0167 51.7188 16.6522 51.7188 12.5167C51.7188 8.38117 54.873 5.01667 58.75 5.01667ZM47.0312 47.5167C47.0312 51.6522 43.877 55.0167 40 55.0167C36.123 55.0167 32.9688 51.6522 32.9688 47.5167C32.9688 43.3812 36.123 40.0167 40 40.0167C43.877 40.0167 47.0312 43.3812 47.0312 47.5167ZM21.25 5.01667C25.127 5.01667 28.2812 8.38117 28.2812 12.5167C28.2812 16.6522 25.127 20.0167 21.25 20.0167C17.373 20.0167 14.2188 16.6522 14.2188 12.5167C14.2188 8.38117 17.373 5.01667 21.25 5.01667ZM30.6312 40.0168C30.6291 40.017 30.627 40.0167 30.625 40.0167H4.85594C6.00766 31.5472 12.9206 25.0167 21.25 25.0167C27.9062 25.0167 33.8008 29.276 36.3422 35.6435C34.0439 36.4512 32.0569 37.9957 30.6312 40.0168ZM56.2394 75.0167H23.7606C24.9012 66.5472 31.7491 60.0167 40 60.0167C48.2509 60.0167 55.0986 66.5472 56.2394 75.0167ZM49.375 40.0167C49.373 40.0167 49.3709 40.017 49.3687 40.017C47.9431 37.9958 45.9561 36.4513 43.6578 35.6437C46.1992 29.276 52.0936 25.0167 58.75 25.0167C67.0794 25.0167 73.9923 31.5472 75.1441 40.0167H49.375Z" fill="#EA0000"/>
</svg>
