<svg xmlns="http://www.w3.org/2000/svg" xmlns:xlink="http://www.w3.org/1999/xlink" style="display: block !important; height: 0 !important; width: 0 !important;" width="0" height="0">
<defs>
        <clipPath id="tmpl-hh__icon-human_clip0">
            <path d="M0 0h60v60H0z"/>
        </clipPath>
    
        <clipPath id="tmpl-hh__icon-shield_clip0">
            <path d="M0 0h60v60H0z"/>
        </clipPath>
    </defs>
<symbol id="tmpl-hh__icon-arrow-left">
    <path d="M16.71 34.272a.75.75 0 001.06-1.06L1.809 17.25 17.77 1.289a.75.75 0 10-1.06-1.06L.22 16.72a.75.75 0 000 1.06l16.49 16.491z"/>
</symbol>
<symbol id="tmpl-hh__icon-arrow-next">
    <path d="M1.29.21A.75.75 0 00.23 1.27l7.475 7.476c4.687 4.686 4.687 12.285 0 16.97L.229 33.192a.75.75 0 101.06 1.06l16.491-16.49a.75.75 0 000-1.06L1.29.21z"/>
</symbol>
<symbol id="tmpl-hh__icon-arrow-prev">
    <path d="M16.71 34.272a.75.75 0 001.06-1.06l-7.476-7.477c-4.687-4.686-4.686-12.284 0-16.97l7.477-7.476a.75.75 0 10-1.06-1.06L.22 16.72a.75.75 0 000 1.06l16.49 16.491z"/>
</symbol>
<symbol id="tmpl-hh__icon-arrow-right">
    <path d="M1.29.21A.75.75 0 00.23 1.27l15.961 15.962L.23 33.192a.75.75 0 101.06 1.06L17.78 17.76a.75.75 0 000-1.06L1.29.21z"/>
</symbol>
<symbol id="tmpl-hh__icon-celebrat">
    <path d="M24.397 22.965c-1.228-1.202-3.322-.762-3.933.834L.157 76.83c-.72 1.879 1.16 3.723 3.081 3.017L57.39 59.96c1.623-.596 2.086-2.643.852-3.851L24.397 22.965zm-.757 5.888l9.835 9.63c.68 8.01 3.71 15.71 8.65 22.077l-10.237 3.76C24.23 56.518 20.322 45.612 21.363 34.8l2.277-5.947zm-6.452 40.865a37.173 37.173 0 01-5.855-8.727l5.78-15.092c1.435 7.72 4.976 14.625 9.941 20.195l-9.866 3.624zM9.102 66.82a41.812 41.812 0 003.33 4.644l-5.945 2.183 2.615-6.827zm37.727-7.988a37.368 37.368 0 01-7.547-14.661l12.947 12.678-5.4 1.983zM55.607 43.773a2.43 2.43 0 003.384 0c9.004-8.816 17.77-6.09 17.858-6.062 1.254.41 2.61-.255 3.027-1.482.419-1.228-.26-2.555-1.513-2.965-.472-.154-11.684-3.648-22.756 7.195a2.309 2.309 0 000 3.314zM36.992 25.545c.935.915 2.45.915 3.385 0C51.449 14.702 47.88 3.722 47.724 3.26c-.418-1.228-1.773-1.892-3.027-1.482-1.254.41-1.932 1.737-1.514 2.964.03.086 2.813 8.672-6.19 17.488a2.31 2.31 0 000 3.315zM45.454 30.516a2.31 2.31 0 000 3.314 2.43 2.43 0 003.37.014c1.236-.603 5.074 1.66 7.206-.428 2.11-2.066-.132-5.748.428-7.038 1.32-.55 5.077 1.646 7.187-.42 2.11-2.066-.131-5.747.428-7.037 1.322-.55 5.077 1.646 7.187-.42 2.11-2.066-.131-5.747.428-7.038 1.314-.547 5.08 1.645 7.188-.42 2.131-2.087-.175-5.852.436-7.056a2.31 2.31 0 00-.014-3.3 2.43 2.43 0 00-3.384 0c-1.886 1.847-1.517 4.454-1.162 6.319-1.904-.348-4.567-.71-6.453 1.138-1.886 1.847-1.517 4.455-1.162 6.319-1.904-.348-4.567-.71-6.453 1.138-1.886 1.847-1.517 4.455-1.162 6.32-1.904-.349-4.567-.71-6.453 1.137-1.886 1.847-1.517 4.455-1.162 6.32-1.904-.348-4.567-.71-6.453 1.138zM58.992 10.63a2.31 2.31 0 000-3.314 2.43 2.43 0 00-3.385 0 2.31 2.31 0 000 3.314 2.43 2.43 0 003.385 0zM74.221 27.889c1.322 0 2.393-1.05 2.393-2.344 0-1.295-1.071-2.344-2.393-2.344-1.321 0-2.393 1.05-2.393 2.344 0 1.294 1.072 2.344 2.393 2.344zM69.145 47.088a2.31 2.31 0 000 3.314c.934.916 2.45.916 3.384 0a2.31 2.31 0 000-3.314 2.429 2.429 0 00-3.384 0zM35.3 13.943a2.31 2.31 0 000-3.314 2.43 2.43 0 00-3.384 0 2.31 2.31 0 000 3.314 2.43 2.43 0 003.384 0z"/>
</symbol>
<symbol id="tmpl-hh__icon-char">
    <path d="M47.437 46.688H32.572c-1.244 0-2.253.997-2.253 2.228v28.855c0 1.231 1.009 2.229 2.253 2.229h14.865c1.244 0 2.252-.998 2.252-2.229V48.916c0-1.23-1.008-2.228-2.252-2.228zm-2.253 28.855h-10.36V51.144h10.36v24.4zM76.942 29.196H61.964c-1.244 0-2.252.998-2.252 2.228v46.348c0 1.23 1.008 2.228 2.252 2.228h14.978c1.244 0 2.252-.997 2.252-2.228V31.424c0-1.23-1.008-2.228-2.252-2.228zM74.69 75.544H64.216V33.653H74.69v41.89zM18.044 57.494H3.067c-1.244 0-2.253.998-2.253 2.228v18.049c0 1.23 1.009 2.228 2.253 2.228h14.977c1.244 0 2.253-.997 2.253-2.228V59.722c0-1.23-1.009-2.228-2.253-2.228zm-2.252 18.049H5.32V61.95h10.473v13.592zM79.42 2.235a1.92 1.92 0 00-1.465-.78L57.46.006c-1.244-.092-2.328.831-2.422 2.061a2.242 2.242 0 002.084 2.396l14.505.974-26.668 20.64-20.383-15.82a2.27 2.27 0 00-2.928.11L.702 30.2a2.211 2.211 0 00-.112 3.12 2.036 2.036 0 001.689.78 2.263 2.263 0 001.576-.669l19.483-18.495 20.157 15.71a2.271 2.271 0 002.816 0L75.14 8.45l-1.127 13.839a2.35 2.35 0 002.14 2.34h.112a2.244 2.244 0 002.252-2.006l1.464-18.829a1.772 1.772 0 00-.563-1.56z"/>
</symbol>
<symbol id="tmpl-hh__icon-conference">
    <path d="M54.553 47.5c1.195-1.436 1.931-3.371 1.931-5.5 0-4.411-3.154-8-7.03-8-3.878 0-7.032 3.589-7.032 8 0 2.129.736 4.064 1.932 5.5-2.064 1.301-3.706 3.368-4.627 5.86-.922-2.492-2.564-4.558-4.627-5.86 1.195-1.436 1.931-3.371 1.931-5.5 0-4.411-3.154-8-7.031-8s-7.031 3.589-7.031 8c0 2.129.736 4.064 1.931 5.5-2.063 1.301-3.705 3.368-4.627 5.86-.921-2.492-2.563-4.558-4.627-5.86 1.196-1.436 1.932-3.371 1.932-5.5 0-4.411-3.154-8-7.031-8s-7.031 3.589-7.031 8c0 2.129.736 4.064 1.931 5.5C2.202 49.546 0 53.485 0 58v2h60v-2c0-4.514-2.202-8.453-5.447-10.5zM10.547 38c1.938 0 3.515 1.794 3.515 4s-1.577 4-3.515 4c-1.939 0-3.516-1.794-3.516-4s1.577-4 3.516-4zM3.738 56c.783-3.447 3.539-6 6.809-6s6.026 2.553 6.809 6H3.738zM30 38c1.939 0 3.516 1.794 3.516 4S31.939 46 30 46s-3.516-1.794-3.516-4 1.577-4 3.516-4zm-6.809 18c.783-3.447 3.539-6 6.809-6s6.026 2.553 6.809 6H23.19zm26.262-18c1.939 0 3.516 1.794 3.516 4s-1.577 4-3.516 4c-1.938 0-3.516-1.794-3.516-4s1.578-4 3.516-4zm-6.809 18c.783-3.447 3.539-6 6.81-6 3.27 0 6.026 2.553 6.808 6H42.644zM40.547 24c0-4.514-2.202-8.453-5.447-10.5 1.195-1.436 1.931-3.371 1.931-5.5 0-4.411-3.154-8-7.031-8s-7.031 3.589-7.031 8c0 2.129.736 4.064 1.931 5.5-3.245 2.047-5.447 5.986-5.447 10.5v2h21.094v-2zM30 4c1.939 0 3.516 1.794 3.516 4S31.939 12 30 12s-3.516-1.794-3.516-4S28.061 4 30 4zm-6.809 18c.783-3.447 3.539-6 6.809-6s6.026 2.553 6.809 6H23.19zM51.21 30h3.517V10H42.422v4h8.789v16zM8.79 14h8.788v-4H5.273v20H8.79V14z"/>
</symbol>
<symbol id="tmpl-hh__icon-cup">
    <path d="M0 12.44c0 8.65 8.005 15.685 17.845 15.685h1.713A18.844 18.844 0 0024 30.542v2.856c0 4.911-4.486 8.907-10 8.907H8v3.515h4v10.664H8V60h44v-3.516h-4V45.82h4v-3.515h-6c-5.514 0-10-3.996-10-8.907v-2.856a18.84 18.84 0 004.442-2.417h1.713c9.84 0 17.845-7.036 17.845-15.684 0-4.287-3.456-7.875-8.047-8.73.03-.648.047-1.299.047-1.953V0H8v1.758c0 .654.017 1.305.047 1.952C3.456 4.566 0 8.155 0 12.44zm44 33.38v10.664H16V45.82h28zm-7.749-3.515H23.75C26.369 40.046 28 36.888 28 33.398V31.52c.66.079 1.328.12 2 .12.672 0 1.34-.041 2-.12v1.878c0 3.49 1.63 6.648 4.251 8.907zM56 12.44c0 6.045-5.042 11.074-11.624 12.011a26.96 26.96 0 001.462-1.875c3.027-4.257 5.017-9.562 5.794-15.313C54.157 7.94 56 10.004 56 12.441zm-8.04-8.925c-.294 6.522-2.226 12.574-5.514 17.198-3.398 4.779-7.819 7.411-12.446 7.411s-9.047-2.632-12.446-7.411c-3.288-4.624-5.22-10.676-5.514-17.198h35.92zM8.37 7.264c.776 5.75 2.766 11.056 5.793 15.313.469.66.957 1.283 1.462 1.875C9.042 23.515 4 18.486 4 12.441c0-2.437 1.843-4.502 4.369-5.177z"/>
</symbol>
<symbol id="tmpl-hh__icon-handshake">
    <path d="M60 18.22l-2.486-2.486-3.346 3.345L40.919 5.832l3.346-3.346L41.78 0l-5.832 5.832 1.238 1.238-1.2 1.2-4.848.683L30 10.09l-1.137-1.136-4.848-.683-1.2-1.2 1.238-1.238L18.221 0l-2.486 2.486 3.346 3.346L5.832 19.079l-3.346-3.346L0 18.22l5.832 5.831 1.239-1.238 1.2 1.2.683 4.85 6.967 6.966v10.314l2.946 3.912v1.698h-1.751V60h3.516v-4.731h18.736V60h3.516v-8.247h-1.751v-1.698l2.946-3.912V35.83l6.967-6.967.683-4.849 1.2-1.2 1.239 1.238L60 18.22zm-48.411 4.138l-2.032-2.031 10.771-10.77 2.032 2.03 4.85.684 5.37 5.371-.697.698a2.518 2.518 0 01-1.792.742 2.518 2.518 0 01-1.793-.742l-2.719-2.72-2.486 2.487 3.284 3.284h-3.418v13.023a6.014 6.014 0 00-2.535-.558h-1.503l-6.65-6.648-.682-4.85zm10.795 29.395V48.88l-2.947-3.913v-7.595h.987a2.537 2.537 0 012.535 2.534v3.846h3.516V24.907H37.83a2.735 2.735 0 012.733 2.732v17.329l-2.947 3.912v2.873H22.384zM48.41 22.358l-.683 4.85-3.65 3.649v-3.218a6.255 6.255 0 00-6.248-6.248h-4.112c.228-.172.446-.36.651-.565l3.185-3.184-5.068-5.067.304-.304 4.85-.683 2.032-2.032 10.77 10.77-2.03 2.032z"/>
</symbol>
<symbol id="tmpl-hh__icon-human">
    <g clip-path="url(#tmpl-hh__icon-human_clip0)">
        <path d="M30 33.796c-18.028 0-27.956 8.528-27.956 24.014 0 1.21.98 2.19 2.19 2.19h51.532c1.21 0 2.19-.98 2.19-2.19 0-15.485-9.928-24.014-27.956-24.014zM6.503 55.62C7.364 44.04 15.258 38.174 30 38.174c14.742 0 22.636 5.867 23.498 17.446H6.503zM30 0c-8.281 0-14.526 6.37-14.526 14.817 0 8.694 6.517 15.766 14.526 15.766 8.01 0 14.525-7.072 14.525-15.765C44.525 6.37 38.281 0 30 0zm0 26.204c-5.595 0-10.146-5.108-10.146-11.386C19.854 8.768 24.12 4.38 30 4.38c5.785 0 10.146 4.486 10.146 10.438 0 6.278-4.551 11.386-10.146 11.386z"/>
    </g>
    
</symbol>
<symbol id="tmpl-hh__icon-shield">
    <g clip-path="url(#tmpl-hh__icon-shield_clip0)">
        <path d="M52.285 6.422L30.605.085 30.56.073a2.199 2.199 0 00-1.12 0l-.022.006L7.715 6.422a3.685 3.685 0 00-2.717 3.553v30.912a10.69 10.69 0 005.85 9.564l14.197 8.344.098.054A10.782 10.782 0 0030 60c1.668 0 3.336-.384 4.856-1.151l.05-.025 14.246-8.373a10.69 10.69 0 005.85-9.564V9.975a3.685 3.685 0 00-2.717-3.553zm-.799 34.465a7.191 7.191 0 01-3.97 6.452l-.051.025-14.24 8.37a7.29 7.29 0 01-6.45 0l-14.192-8.342-.099-.053a7.192 7.192 0 01-3.97-6.452V9.975c0-.075.05-.141.124-.16L30 3.57l21.317 6.23.045.013c.073.02.124.086.124.161v30.912z"/>
        <path d="M30 13.722c-8.304 0-15.06 6.756-15.06 15.06s6.756 15.06 15.06 15.06 15.06-6.756 15.06-15.06-6.756-15.06-15.06-15.06zm0 26.604c-6.365 0-11.544-5.179-11.544-11.544 0-6.366 5.179-11.544 11.544-11.544s11.544 5.178 11.544 11.544c0 6.365-5.178 11.544-11.544 11.544z"/>
        <path d="M36.447 24.267a1.758 1.758 0 00-2.484-.097l-5.937 5.494-1.94-1.94A1.758 1.758 0 0023.6 30.21l3.136 3.136c.015.015.031.028.047.042l.065.06c.024.02.05.039.075.057.022.018.045.035.069.051.026.018.053.035.08.051.024.014.047.029.071.042.03.016.06.03.09.044.023.01.045.022.069.032a1.6 1.6 0 00.098.036l.066.023.107.028.061.014c.04.008.082.014.122.019l.05.007a1.74 1.74 0 00.338 0c.016 0 .032-.004.048-.006.038-.004.077-.01.115-.016l.06-.014c.034-.008.068-.015.101-.025.022-.006.044-.014.066-.022.03-.01.06-.02.091-.032l.069-.03c.028-.012.056-.024.083-.038l.07-.04c.026-.014.052-.029.077-.045.023-.015.046-.03.069-.047.024-.017.048-.034.071-.053l.065-.053c.014-.013.03-.024.044-.038l7.178-6.642c.713-.66.756-1.772.096-2.484z"/>
    </g>
    
</symbol>
<symbol id="tmpl-hh__icon-team">
    <path d="M66.726 21.646c2.3-2.283 3.743-5.538 3.743-9.146C70.469 5.607 65.212 0 58.75 0S47.031 5.607 47.031 12.5c0 3.615 1.448 6.875 3.756 9.16-4.621 2.007-8.47 5.721-10.787 10.514-2.316-4.793-6.166-8.507-10.787-10.514 2.308-2.285 3.756-5.545 3.756-9.16C32.969 5.607 27.712 0 21.25 0S9.531 5.607 9.531 12.5c0 3.608 1.443 6.863 3.743 9.146C5.498 24.993 0 33.08 0 42.5 0 43.88 1.05 45 2.344 45h26.173a13.32 13.32 0 00-.236 2.5c0 3.618 1.45 6.88 3.76 9.164-7.697 3.358-13.135 11.431-13.135 20.836 0 1.38 1.05 2.5 2.344 2.5h37.5c1.294 0 2.344-1.12 2.344-2.5 0-9.404-5.438-17.478-13.136-20.836 2.311-2.284 3.76-5.546 3.76-9.164 0-.856-.08-1.692-.235-2.5h26.173C78.951 45 80 43.88 80 42.5c0-9.421-5.498-17.507-13.274-20.854zM58.75 5.016c3.877 0 7.031 3.365 7.031 7.5 0 4.136-3.154 7.5-7.031 7.5s-7.031-3.364-7.031-7.5c0-4.135 3.154-7.5 7.031-7.5zm-11.719 42.5c0 4.136-3.154 7.5-7.031 7.5s-7.031-3.364-7.031-7.5c0-4.135 3.154-7.5 7.031-7.5s7.031 3.365 7.031 7.5zM21.25 5.017c3.877 0 7.031 3.365 7.031 7.5 0 4.136-3.154 7.5-7.031 7.5s-7.031-3.364-7.031-7.5c0-4.135 3.154-7.5 7.031-7.5zm9.381 35H4.855c1.153-8.469 8.066-15 16.395-15 6.656 0 12.55 4.26 15.092 10.628-2.298.807-4.285 2.352-5.71 4.373zm25.608 35H23.761c1.14-8.469 7.988-15 16.239-15 8.25 0 15.099 6.531 16.24 15zm-6.864-35l-.006.001c-1.426-2.021-3.413-3.566-5.711-4.373 2.541-6.368 8.436-10.627 15.092-10.627 8.33 0 15.242 6.53 16.394 15H49.375z"/>
</symbol>
</svg>